<?xml version="1.0" standalone="no"?>
<!DOCTYPE svg PUBLIC "-//W3C//DTD SVG 20010904//EN"
 "http://www.w3.org/TR/2001/REC-SVG-20010904/DTD/svg10.dtd">
<svg version="1.0" xmlns="http://www.w3.org/2000/svg"
 width="1152.000000pt" height="648.000000pt" viewBox="0 0 1152.000000 648.000000"
 preserveAspectRatio="xMidYMid meet">

<g transform="translate(0.000000,648.000000) scale(0.100000,-0.100000)"
fill="#000000" stroke="none">
<path d="M456 6144 c-138 -142 -316 -736 -316 -1052 0 -99 30 -240 67 -322
106 -231 331 -379 678 -446 112 -22 461 -26 575 -6 264 45 439 124 574 257 82
81 136 167 173 280 25 74 27 92 27 250 0 135 -4 193 -22 280 -62 311 -193 661
-285 759 -46 49 -79 48 -148 -4 -61 -45 -166 -162 -237 -263 -45 -65 -48 -67
-82 -62 -176 26 -355 26 -535 -1 -37 -5 -41 -3 -59 26 -35 60 -176 229 -229
273 -95 81 -127 86 -181 31z"/>
</g>
</svg>
